<svg width="16" height="16" viewBox="0 0 16 16" fill="none" xmlns="http://www.w3.org/2000/svg">
<g clip-path="url(#clip0_117_1972)">
<path d="M7.33333 10.6666L4.66667 7.99996M4.66667 7.99996L7.33333 5.33329M4.66667 7.99996H14M10.6667 10.6666V11.3333C10.6667 11.8637 10.456 12.3724 10.0809 12.7475C9.70581 13.1226 9.1971 13.3333 8.66667 13.3333H4C3.46957 13.3333 2.96086 13.1226 2.58579 12.7475C2.21071 12.3724 2 11.8637 2 11.3333V4.66663C2 4.13619 2.21071 3.62749 2.58579 3.25241C2.96086 2.87734 3.46957 2.66663 4 2.66663H8.66667C9.1971 2.66663 9.70581 2.87734 10.0809 3.25241C10.456 3.62749 10.6667 4.13619 10.6667 4.66663V5.33329" stroke="#B9C0FE" stroke-width="2" stroke-linecap="round" stroke-linejoin="round"/>
</g>
<defs>
<clipPath id="clip0_117_1972">
<rect width="16" height="16" fill="white"/>
</clipPath>
</defs>
</svg>
