<svg width="16" height="16" viewBox="0 0 16 16" fill="none" xmlns="http://www.w3.org/2000/svg">
<g clip-path="url(#clip0_117_1991)">
<path fill-rule="evenodd" clip-rule="evenodd" d="M10.0894 2.62369C9.94559 2.32421 9.7201 2.07146 9.4389 1.89455C9.1577 1.71764 8.83224 1.62378 8.50003 1.62378C8.16781 1.62378 7.84235 1.71764 7.56115 1.89455C7.27996 2.07146 7.05446 2.32421 6.91065 2.62369L1.83815 12.6018C1.23128 13.7931 1.99815 15.3749 3.4269 15.3749H13.5725C15.0019 15.3749 15.7675 13.7937 15.1619 12.6018L10.0894 2.62369ZM8.50003 5.99994C8.66579 5.99994 8.82476 6.06579 8.94197 6.183C9.05918 6.30021 9.12503 6.45918 9.12503 6.62494V9.74994C9.12503 9.9157 9.05918 10.0747 8.94197 10.1919C8.82476 10.3091 8.66579 10.3749 8.50003 10.3749C8.33427 10.3749 8.1753 10.3091 8.05809 10.1919C7.94088 10.0747 7.87503 9.9157 7.87503 9.74994V6.62494C7.87503 6.45918 7.94088 6.30021 8.05809 6.183C8.1753 6.06579 8.33427 5.99994 8.50003 5.99994ZM8.50003 11.3124C8.66579 11.3124 8.82476 11.3783 8.94197 11.4955C9.05918 11.6127 9.12503 11.7717 9.12503 11.9374V12.2499C9.12503 12.4157 9.05918 12.5747 8.94197 12.6919C8.82476 12.8091 8.66579 12.8749 8.50003 12.8749C8.33427 12.8749 8.1753 12.8091 8.05809 12.6919C7.94088 12.5747 7.87503 12.4157 7.87503 12.2499V11.9374C7.87503 11.7717 7.94088 11.6127 8.05809 11.4955C8.1753 11.3783 8.33427 11.3124 8.50003 11.3124Z" fill="#B9C0FE"/>
</g>
<defs>
<clipPath id="clip0_117_1991">
<rect width="15" height="15" fill="white" transform="translate(1 1)"/>
</clipPath>
</defs>
</svg>
