<svg width="16" height="16" viewBox="0 0 16 16" fill="none" xmlns="http://www.w3.org/2000/svg">
<g clip-path="url(#clip0_117_1996)">
<path d="M7.99997 2C6.8065 2 5.66191 2.47411 4.81799 3.31802C3.97408 4.16193 3.49997 5.30653 3.49997 6.5V8.901L2.53597 11.315C2.50578 11.3908 2.4946 11.4729 2.50341 11.554C2.51222 11.6351 2.54076 11.7128 2.58652 11.7804C2.63228 11.848 2.69389 11.9033 2.76596 11.9416C2.83803 11.9799 2.91837 11.9999 2.99997 12H13C13.0816 11.9999 13.1619 11.9799 13.234 11.9416C13.3061 11.9033 13.3677 11.848 13.4134 11.7804C13.4592 11.7128 13.4877 11.6351 13.4965 11.554C13.5053 11.4729 13.4942 11.3908 13.464 11.315L12.5 8.9V6.5C12.5 5.30653 12.0259 4.16193 11.182 3.31802C10.338 2.47411 9.19345 2 7.99997 2ZM7.99997 14.5C7.55649 14.5001 7.12556 14.3528 6.77492 14.0813C6.42428 13.8098 6.17384 13.4294 6.06297 13H9.93697C9.8261 13.4294 9.57566 13.8098 9.22502 14.0813C8.87439 14.3528 8.44345 14.5001 7.99997 14.5Z" fill="#B9C0FE"/>
</g>
<defs>
<clipPath id="clip0_117_1996">
<rect width="16" height="16" fill="white"/>
</clipPath>
</defs>
</svg>
