<svg width="15" height="15" viewBox="0 0 15 15" fill="none" xmlns="http://www.w3.org/2000/svg">
<path opacity="0.5" d="M13.75 6.25H1.25V11.875C1.25 12.3723 1.44754 12.8492 1.79917 13.2008C2.15081 13.5525 2.62772 13.75 3.125 13.75H11.875C12.3723 13.75 12.8492 13.5525 13.2008 13.2008C13.5525 12.8492 13.75 12.3723 13.75 11.875V6.25ZM4.375 5C4.20924 5 4.05027 4.93415 3.93306 4.81694C3.81585 4.69973 3.75 4.54076 3.75 4.375V1.875C3.75 1.70924 3.81585 1.55027 3.93306 1.43306C4.05027 1.31585 4.20924 1.25 4.375 1.25C4.54076 1.25 4.69973 1.31585 4.81694 1.43306C4.93415 1.55027 5 1.70924 5 1.875V4.375C5 4.54076 4.93415 4.69973 4.81694 4.81694C4.69973 4.93415 4.54076 5 4.375 5ZM10.625 5C10.4592 5 10.3003 4.93415 10.1831 4.81694C10.0658 4.69973 10 4.54076 10 4.375V1.875C10 1.70924 10.0658 1.55027 10.1831 1.43306C10.3003 1.31585 10.4592 1.25 10.625 1.25C10.7908 1.25 10.9497 1.31585 11.0669 1.43306C11.1842 1.55027 11.25 1.70924 11.25 1.875V4.375C11.25 4.54076 11.1842 4.69973 11.0669 4.81694C10.9497 4.93415 10.7908 5 10.625 5Z" fill="#B9C0FE"/>
<path d="M11.875 2.5H11.25V4.375C11.25 4.54076 11.1842 4.69973 11.0669 4.81694C10.9497 4.93415 10.7908 5 10.625 5C10.4592 5 10.3003 4.93415 10.1831 4.81694C10.0658 4.69973 10 4.54076 10 4.375V2.5H5V4.375C5 4.54076 4.93415 4.69973 4.81694 4.81694C4.69973 4.93415 4.54076 5 4.375 5C4.20924 5 4.05027 4.93415 3.93306 4.81694C3.81585 4.69973 3.75 4.54076 3.75 4.375V2.5H3.125C2.62772 2.5 2.15081 2.69754 1.79917 3.04917C1.44754 3.40081 1.25 3.87772 1.25 4.375V6.25H13.75V4.375C13.75 3.87772 13.5525 3.40081 13.2008 3.04917C12.8492 2.69754 12.3723 2.5 11.875 2.5Z" fill="#B9C0FE"/>
</svg>
